<svg width="43" height="55" viewBox="0 0 43 55" fill="none" xmlns="http://www.w3.org/2000/svg">
<path d="M21.5 0C14.0217 0 0 5.78947 0 22.193C0 38.5965 21.5 55 21.5 55C21.5 55 43 38.5965 43 22.193C43 5.78947 28.9783 0 21.5 0Z" fill="#0F5A47"/>
<path d="M8.22601 16.8862C8.22601 15.6318 8.59993 14.4739 9.44123 13.6055C10.2825 12.737 11.3108 12.3511 12.526 12.3511C13.8347 12.3511 14.863 12.737 15.7043 13.509L15.1434 14.4739C14.863 14.1844 14.4891 13.9914 14.0217 13.7984C13.5543 13.6055 13.0869 13.509 12.713 13.509C11.7782 13.509 10.9369 13.7984 10.376 14.4739C9.81514 15.1493 9.53471 15.9212 9.53471 16.8862C9.53471 17.8511 9.81514 18.7195 10.376 19.3949C10.9369 20.0704 11.7782 20.4563 12.713 20.4563C13.1804 20.4563 13.6478 20.3598 14.1151 20.1669C14.5825 19.9739 14.9564 19.6844 15.3304 19.2984L15.9847 20.1669C15.0499 21.1318 13.9282 21.6142 12.713 21.6142C11.4978 21.6142 10.376 21.1318 9.53471 20.2634C8.59993 19.2984 8.22601 18.1405 8.22601 16.8862Z" fill="white"/>
<path d="M17.3868 21.3249V12.4478H18.6021V16.3074H23.089V12.4478H24.3042V21.3249H23.089V17.4653H18.6021V21.3249H17.3868Z" fill="white"/>
<path d="M25.9869 16.7897C25.9869 15.5353 26.3608 14.4739 27.2021 13.6055C28.0434 12.737 29.0717 12.3511 30.3804 12.3511C31.6891 12.3511 32.7173 12.737 33.5586 13.6055C34.3999 14.4739 34.7738 15.5353 34.7738 16.7897C34.7738 18.1406 34.3999 19.202 33.5586 20.0704C32.7173 20.9388 31.6891 21.4213 30.3804 21.4213C29.0717 21.4213 28.0434 20.9388 27.2021 20.0704C26.4543 19.202 25.9869 18.1406 25.9869 16.7897ZM27.2021 16.7897C27.2021 17.7546 27.4825 18.623 28.1369 19.2984C28.7912 19.9739 29.5391 20.2634 30.3804 20.2634C31.3151 20.2634 32.063 19.9739 32.6238 19.2984C33.1847 18.623 33.5586 17.7546 33.5586 16.7897C33.5586 15.8248 33.2782 15.0528 32.6238 14.3774C32.063 13.702 31.3151 13.4125 30.3804 13.4125C29.4456 13.4125 28.6977 13.702 28.1369 14.3774C27.576 15.0528 27.2021 15.8248 27.2021 16.7897Z" fill="white"/>
<path d="M8.59991 28.4653C8.59991 27.2109 8.97383 26.053 9.81513 25.1846C10.6564 24.3161 11.6847 23.9302 12.8999 23.9302C14.2086 23.9302 15.2369 24.3161 16.0782 25.0881L15.5173 26.053C15.2369 25.7635 14.863 25.5705 14.3956 25.3775C13.9282 25.1846 13.4608 25.0881 13.0869 25.0881C12.1521 25.0881 11.3108 25.3775 10.7499 26.053C10.189 26.7284 9.90861 27.5004 9.90861 28.4653C9.90861 29.4302 10.189 30.2986 10.7499 30.974C11.3108 31.6495 12.1521 32.0354 13.0869 32.0354C13.5543 32.0354 14.0217 31.939 14.489 31.746C14.9564 31.553 15.3303 31.2635 15.7043 30.8775L16.3586 31.746C15.4238 32.7109 14.3021 33.1933 13.0869 33.1933C11.8717 33.1933 10.7499 32.7109 9.90861 31.8425C8.97383 30.8775 8.59991 29.7197 8.59991 28.4653Z" fill="white"/>
<path d="M17.1064 28.4653C17.1064 27.2109 17.4804 26.053 18.3217 25.1846C19.163 24.3161 20.1912 23.9302 21.4064 23.9302C22.7151 23.9302 23.7434 24.3161 24.5847 25.0881L23.9304 26.053C23.6499 25.7635 23.276 25.5705 22.8086 25.3775C22.3412 25.1846 21.8738 25.0881 21.4999 25.0881C20.5651 25.0881 19.7238 25.3775 19.163 26.053C18.6021 26.7284 18.3217 27.5004 18.3217 28.4653C18.3217 29.4302 18.6021 30.2986 19.163 30.974C19.7238 31.6495 20.5651 32.0354 21.4999 32.0354C21.9673 32.0354 22.4347 31.939 22.9021 31.746C23.3695 31.553 23.7434 31.2635 24.1173 30.8775L24.7717 31.746C23.8369 32.7109 22.7151 33.1933 21.4999 33.1933C20.1912 33.1933 19.163 32.7109 18.3217 31.8425C17.4804 30.8775 17.1064 29.7197 17.1064 28.4653Z" fill="white"/>
<path d="M25.613 28.3688C25.613 27.1144 25.9869 26.053 26.8282 25.1846C27.6695 24.3161 28.6978 23.9302 30.0065 23.9302C31.3151 23.9302 32.3434 24.3161 33.1847 25.1846C34.026 26.053 34.3999 27.1144 34.3999 28.3688C34.3999 29.7197 34.026 30.7811 33.1847 31.6495C32.3434 32.5179 31.3151 33.0004 30.0065 33.0004C28.6978 33.0004 27.6695 32.5179 26.8282 31.6495C25.9869 30.7811 25.613 29.7197 25.613 28.3688ZM26.8282 28.3688C26.8282 29.3337 27.1086 30.2021 27.763 30.8775C28.4173 31.553 29.1651 31.8425 30.0065 31.8425C30.9412 31.8425 31.6891 31.553 32.2499 30.8775C32.8108 30.2021 33.1847 29.3337 33.1847 28.3688C33.1847 27.4039 32.9043 26.6319 32.2499 25.9565C31.6891 25.2811 30.9412 24.9916 30.0065 24.9916C29.0717 24.9916 28.3238 25.2811 27.763 25.9565C27.1086 26.6319 26.8282 27.4039 26.8282 28.3688Z" fill="white"/>
</svg>
