<svg width="18" height="184" viewBox="0 0 18 184" fill="none" xmlns="http://www.w3.org/2000/svg">
<path fill-rule="evenodd" clip-rule="evenodd" d="M8.99999 6.99906C10.6568 6.99906 12 8.34266 12 9.9994C12 11.6561 10.6568 12.9994 8.99999 12.9994C7.34309 12.9994 5.99999 11.6561 5.99999 9.9994C5.99999 8.34266 7.34309 6.99906 8.99999 6.99906Z" fill="white"/>
<path fill-rule="evenodd" clip-rule="evenodd" d="M8.99999 27.9993C10.6568 27.9993 12 29.3429 12 30.9996C12 32.6563 10.6568 33.9992 8.99999 33.9992C7.34309 33.9992 5.99999 32.6563 5.99999 30.9996C5.99999 29.3429 7.34309 27.9993 8.99999 27.9993Z" fill="white"/>
<path fill-rule="evenodd" clip-rule="evenodd" d="M8.99999 49.9991C10.6568 49.9991 12 51.3423 12 52.9994C12 54.6565 10.6568 55.999 8.99999 55.999C7.34309 55.999 5.99999 54.6565 5.99999 52.9994C5.99999 51.3423 7.34309 49.9991 8.99999 49.9991Z" fill="white"/>
<path fill-rule="evenodd" clip-rule="evenodd" d="M8.99999 70.9993C10.6568 70.9993 12 72.3429 12 73.9996C12 75.656 10.6568 76.9989 8.99999 76.9989C7.34309 76.9989 5.99999 75.656 5.99999 73.9996C5.99999 72.3429 7.34309 70.9993 8.99999 70.9993Z" fill="white"/>
<path fill-rule="evenodd" clip-rule="evenodd" d="M8.99999 91.9995C10.6568 91.9995 12 93.3424 12 94.9988C12 96.6558 10.6568 97.9994 8.99999 97.9994C7.34309 97.9994 5.99999 96.6558 5.99999 94.9988C5.99999 93.3424 7.34309 91.9995 8.99999 91.9995Z" fill="white"/>
<path fill-rule="evenodd" clip-rule="evenodd" d="M8.99999 112.999C10.6568 112.999 12 114.342 12 115.999C12 117.656 10.6568 119 8.99999 119C7.34309 119 5.99999 117.656 5.99999 115.999C5.99999 114.342 7.34309 112.999 8.99999 112.999Z" fill="white"/>
<path fill-rule="evenodd" clip-rule="evenodd" d="M8.99999 135C10.6568 135 12 136.342 12 137.999C12 139.656 10.6568 140.999 8.99999 140.999C7.34309 140.999 5.99999 139.656 5.99999 137.999C5.99999 136.342 7.34309 135 8.99999 135Z" fill="white"/>
<path fill-rule="evenodd" clip-rule="evenodd" d="M8.99999 155.999C10.6568 155.999 12 157.343 12 158.999C12 160.656 10.6568 161.999 8.99999 161.999C7.34309 161.999 5.99999 160.656 5.99999 158.999C5.99999 157.343 7.34309 155.999 8.99999 155.999Z" fill="white"/>
<path fill-rule="evenodd" clip-rule="evenodd" d="M8.99999 176.999C10.6568 176.999 12 178.342 12 179.999C12 181.656 10.6568 182.999 8.99999 182.999C7.34309 182.999 5.99999 181.656 5.99999 179.999C5.99999 178.342 7.34309 176.999 8.99999 176.999Z" fill="white"/>
</svg>
