<!--<svg xmlns="http://www.w3.org/2000/svg" xmlns:xlink="http://www.w3.org/1999/xlink">
	<symbol id="face">
		<path class="facebook" d="M36.7,34.7c0,1.1-0.9,2-2,2h-9.4V22.5h4.8l0.7-5.5h-5.5v-3.5c0-1.6,0.4-2.7,2.7-2.7l2.9,0v-5
	c-0.5-0.1-2.2-0.2-4.3-0.2c-4.2,0-7.1,2.6-7.1,7.3V17h-4.8v5.5h4.8v14.2H2c-1.1,0-2-0.9-2-2V2c0-1.1,0.9-2,2-2h32.7c1.1,0,2,0.9,2,2
	V34.7z"/> 
	</symbol> 
</svg>

<svg xmlns="http://www.w3.org/2000/svg" xmlns:xlink="http://www.w3.org/1999/xlink">
<symbol id="vk">
<path class="vkontakte" d="M36.5,26.8c0-0.1-0.1-0.2-0.1-0.2c-0.6-1.1-1.9-2.6-3.7-4.2l0,0l0,0l0,0h0c-0.8-0.8-1.3-1.3-1.5-1.6
	c-0.4-0.5-0.5-1-0.3-1.5c0.2-0.4,0.7-1.2,1.7-2.5c0.5-0.7,0.9-1.2,1.2-1.6c2.2-2.9,3.2-4.8,2.9-5.6l-0.1-0.2C36.5,9.1,36.3,9,36,8.9
	c-0.3-0.1-0.7-0.1-1.2,0l-5.5,0c-0.1,0-0.2,0-0.4,0c-0.2,0-0.2,0.1-0.2,0.1l-0.1,0l-0.1,0.1c-0.1,0-0.1,0.1-0.2,0.2
	c-0.1,0.1-0.1,0.2-0.2,0.3c-0.6,1.5-1.3,3-2,4.3c-0.5,0.8-0.9,1.5-1.3,2.1c-0.4,0.6-0.7,1-1,1.3c-0.3,0.3-0.5,0.5-0.7,0.7
	c-0.2,0.2-0.4,0.2-0.5,0.2c-0.1,0-0.2-0.1-0.3-0.1c-0.2-0.1-0.3-0.3-0.4-0.5c-0.1-0.2-0.2-0.4-0.2-0.7c0-0.3-0.1-0.6-0.1-0.8
	c0-0.2,0-0.5,0-0.9c0-0.4,0-0.7,0-0.8c0-0.5,0-1,0-1.6c0-0.6,0-1,0-1.3c0-0.3,0-0.7,0-1.1c0-0.4,0-0.7-0.1-0.9
	c0-0.2-0.1-0.4-0.2-0.6c-0.1-0.2-0.2-0.4-0.4-0.5c-0.2-0.1-0.4-0.2-0.6-0.3c-0.7-0.2-1.5-0.2-2.6-0.2c-2.4,0-3.9,0.1-4.6,0.5
	c-0.3,0.1-0.5,0.3-0.7,0.6c-0.2,0.3-0.3,0.4-0.1,0.5c0.8,0.1,1.3,0.4,1.6,0.8l0.1,0.2c0.1,0.2,0.2,0.5,0.3,0.9
	c0.1,0.4,0.1,0.9,0.2,1.4c0.1,0.9,0.1,1.7,0,2.4c-0.1,0.7-0.1,1.2-0.2,1.5c-0.1,0.4-0.1,0.7-0.3,0.9c-0.1,0.2-0.2,0.4-0.2,0.4
	c0,0.1-0.1,0.1-0.1,0.1c-0.2,0.1-0.3,0.1-0.5,0.1c-0.2,0-0.4-0.1-0.6-0.3c-0.3-0.2-0.5-0.4-0.8-0.7c-0.3-0.3-0.6-0.7-0.9-1.3
	c-0.3-0.6-0.7-1.2-1.1-2l-0.3-0.6c-0.2-0.4-0.5-0.9-0.8-1.6c-0.3-0.7-0.6-1.3-0.9-2C7.7,9.5,7.5,9.3,7.3,9.1L7.2,9.1
	C7.1,9,7,9,6.9,8.9C6.8,8.9,6.6,8.8,6.5,8.8l-5.2,0C0.7,8.8,0.3,9,0.1,9.2L0.1,9.3C0,9.4,0,9.5,0,9.6c0,0.1,0,0.3,0.1,0.5
	c0.8,1.8,1.6,3.5,2.5,5.2c0.9,1.7,1.7,3,2.3,4c0.7,1,1.3,2,2,2.9c0.7,0.9,1.1,1.5,1.4,1.7c0.2,0.3,0.4,0.4,0.5,0.6L9.3,25
	c0.3,0.3,0.8,0.7,1.3,1.1c0.6,0.4,1.2,0.8,2,1.3c0.7,0.4,1.6,0.8,2.5,1c1,0.3,1.9,0.4,2.8,0.3h2.2c0.4,0,0.8-0.2,1-0.4l0.1-0.1
	c0.1-0.1,0.1-0.2,0.1-0.4c0-0.2,0.1-0.3,0.1-0.5c0-0.5,0-1,0.1-1.5c0.1-0.4,0.2-0.8,0.3-1c0.1-0.2,0.3-0.4,0.4-0.6
	c0.2-0.2,0.3-0.2,0.3-0.3c0.1,0,0.1-0.1,0.2-0.1c0.3-0.1,0.7,0,1.1,0.3c0.4,0.3,0.8,0.7,1.2,1.1c0.4,0.4,0.8,0.9,1.3,1.5
	c0.5,0.5,1,1,1.3,1.2l0.4,0.2c0.3,0.2,0.6,0.3,1,0.4c0.4,0.1,0.8,0.2,1.1,0.1l4.9-0.1c0.5,0,0.9-0.1,1.1-0.2
	c0.3-0.2,0.4-0.3,0.5-0.5c0.1-0.2,0.1-0.4,0-0.7C36.6,27.1,36.6,26.9,36.5,26.8L36.5,26.8z M36.5,26.8"/>
	</symbol>
</svg>


<svg version="1.1" id="Layer_1" xmlns="http://www.w3.org/2000/svg" xmlns:xlink="http://www.w3.org/1999/xlink">
<symbol id="inst">
<path class="instagram" d="M32.3,0H4.4C2,0,0,1.9,0,4.3v28.1c0,2.4,2,4.3,4.4,4.3h27.9c2.4,0,4.4-1.9,4.4-4.3V4.3C36.7,1.9,34.7,0,32.3,0
	 M26.4,5.7c0-0.6,0.5-1.1,1.1-1.1H31c0.6,0,1.1,0.5,1.1,1.1v3.4c0,0.6-0.5,1.1-1.1,1.1h-3.4c-0.6,0-1.1-0.5-1.1-1.1L26.4,5.7
	L26.4,5.7z M18.4,11.3c3.9,0,7.1,3.1,7.1,7s-3.2,7-7.1,7s-7.1-3.1-7.1-7C11.3,14.5,14.5,11.3,18.4,11.3 M33.2,32.1
	c0,0.6-0.5,1.1-1.1,1.1H4.6c-0.6,0-1.1-0.5-1.1-1.1V14.9H8c-0.6,0.9-0.8,2.5-0.8,3.5c0,6.1,5,11.1,11.2,11.1s11.2-5,11.2-11.1
	c0-1-0.1-2.6-0.9-3.5h4.6L33.2,32.1L33.2,32.1z"/>
	</symbol>
</svg>


<svg version="1.1" id="Layer_1" xmlns="http://www.w3.org/2000/svg" xmlns:xlink="http://www.w3.org/1999/xlink" >
<symbol id="tw">
    <path class="twitter" d="M35.7,3.7c-1.5,0.9-3.1,1.5-4.8,1.9c-1.4-1.5-3.3-2.4-5.5-2.4c-4.2,0-7.5,3.5-7.5,7.7c0,0.6,0.1,1.2,0.2,1.8
	C11.8,12.3,6.3,9.2,2.6,4.5c-0.6,1.1-1,2.5-1,3.9c0,2.7,1.3,5,3.4,6.4c-1.2,0-2.4-0.4-3.4-1V14c0,3.7,2.6,6.9,6,7.6
	c-0.6,0.2-1.3,0.3-2,0.3c-0.5,0-1,0-1.4-0.1c1,3.1,3.7,5.3,7,5.4c-2.6,2.1-5.8,3.3-9.4,3.3c-0.6,0-1.2,0-1.8-0.1
	c3.3,2.2,7.3,3.5,11.5,3.5c13.9,0,21.4-11.8,21.4-22c0-0.3,0-0.7,0-1c1.5-1.1,2.8-2.4,3.8-4c-1.3,0.6-2.8,1-4.3,1.2
	C33.9,7,35.1,5.5,35.7,3.7"/>
</symbol>
</svg>-->

<svg xmlns="http://www.w3.org/2000/svg">
    <symbol id="vk">
        <path class="vkontakte"
            d="M19.891 14.6049C19.891 14.5504 19.8365 14.4959 19.8365 14.4959C19.5095 13.8965 18.8011 13.079 17.8202 12.2071C17.3842 11.7711 17.1117 11.4986 17.0027 11.3351C16.7847 11.0627 16.7302 10.7902 16.8392 10.5177C16.9482 10.2997 17.2207 9.86376 17.7657 9.15531C18.0381 8.77384 18.2561 8.50136 18.4196 8.28338C19.6185 6.703 20.1635 5.66757 20 5.23161L19.9455 5.12261C19.891 4.95913 19.782 4.90463 19.6185 4.85013C19.455 4.79564 19.2371 4.79564 18.9646 4.85013H15.9673C15.9128 4.85013 15.8583 4.85013 15.7493 4.85013C15.6403 4.85013 15.6403 4.90463 15.6403 4.90463H15.5858L15.5313 4.95913C15.4768 4.95913 15.4768 5.01362 15.4223 5.06812C15.3678 5.12261 15.3678 5.17711 15.3134 5.23161C14.9864 6.04904 14.6049 6.86648 14.2234 7.57493C13.951 8.0109 13.733 8.39237 13.515 8.71934C13.297 9.04632 13.1335 9.2643 12.97 9.42779C12.8065 9.59128 12.6975 9.70027 12.5886 9.80926C12.4796 9.91825 12.3706 9.91825 12.3161 9.91825C12.2616 9.91825 12.2071 9.86376 12.1526 9.86376C12.0436 9.80926 11.9891 9.70027 11.9346 9.59128C11.8801 9.48229 11.8256 9.3733 11.8256 9.20981C11.8256 9.04632 11.7711 8.88283 11.7711 8.77384C11.7711 8.66485 11.7711 8.50136 11.7711 8.28338C11.7711 8.06539 11.7711 7.90191 11.7711 7.84741C11.7711 7.57493 11.7711 7.30245 11.7711 6.97548C11.7711 6.6485 11.7711 6.43052 11.7711 6.26703C11.7711 6.10354 11.7711 5.88556 11.7711 5.66757C11.7711 5.44959 11.7711 5.2861 11.7166 5.17711C11.7166 5.06812 11.6621 4.95913 11.6076 4.85013C11.5531 4.74114 11.4986 4.63215 11.3896 4.57766C11.2807 4.52316 11.1717 4.46866 11.0627 4.41417C10.6812 4.30518 10.2452 4.30518 9.64578 4.30518C8.33788 4.30518 7.52044 4.35967 7.13896 4.57766C6.97548 4.63215 6.86648 4.74114 6.75749 4.90463C6.6485 5.06812 6.59401 5.12261 6.703 5.17711C7.13896 5.23161 7.41144 5.39509 7.57493 5.61308L7.62943 5.72207C7.68392 5.83106 7.73842 5.99455 7.79292 6.21253C7.84741 6.43052 7.84741 6.703 7.90191 6.97548C7.9564 7.46594 7.9564 7.90191 7.90191 8.28338C7.84741 8.66485 7.84741 8.93733 7.79292 9.10082C7.73842 9.3188 7.73842 9.48229 7.62943 9.59128C7.57493 9.70027 7.52044 9.80926 7.52044 9.80926C7.52044 9.86376 7.46594 9.86376 7.46594 9.86376C7.35695 9.91825 7.30245 9.91825 7.19346 9.91825C7.08447 9.91825 6.97548 9.86376 6.86649 9.75477C6.703 9.64577 6.59401 9.53678 6.43052 9.3733C6.26703 9.20981 6.10354 8.99182 5.94005 8.66485C5.77657 8.33787 5.55858 8.0109 5.3406 7.57493L5.17711 7.24795C5.06812 7.02997 4.90463 6.75749 4.74114 6.37602C4.57766 5.99455 4.41417 5.66757 4.25068 5.2861C4.19619 5.17711 4.08719 5.06812 3.9782 4.95913H3.92371C3.86921 4.90463 3.81471 4.90463 3.76022 4.85013C3.70572 4.85013 3.59673 4.79564 3.54223 4.79564H0.708447C0.381471 4.79564 0.163488 4.90463 0.0544959 5.01362V5.06812C0 5.12261 0 5.17711 0 5.23161C0 5.2861 0 5.39509 0.0544959 5.50409C0.490463 6.48501 0.92643 7.41144 1.41689 8.33787C1.90736 9.2643 2.34332 9.97275 2.6703 10.5177C3.05177 11.0627 3.37875 11.6076 3.76022 12.0981C4.14169 12.5886 4.35967 12.9155 4.52316 13.0245C4.63215 13.188 4.74114 13.2425 4.79564 13.3515L5.06812 13.624C5.23161 13.7875 5.50409 14.0054 5.77657 14.2234C6.10354 14.4414 6.43052 14.6594 6.86649 14.9319C7.24796 15.1499 7.73842 15.3678 8.22888 15.4768C8.77384 15.6403 9.2643 15.6948 9.75477 15.6403H10.9537C11.1717 15.6403 11.3896 15.5313 11.4986 15.4223L11.5531 15.3678C11.6076 15.3133 11.6076 15.2589 11.6076 15.1499C11.6076 15.0409 11.6621 14.9864 11.6621 14.8774C11.6621 14.6049 11.6621 14.3324 11.7166 14.0599C11.7711 13.842 11.8256 13.624 11.8801 13.515C11.9346 13.406 12.0436 13.297 12.0981 13.188C12.2071 13.079 12.2616 13.079 12.2616 13.0245C12.3161 13.0245 12.3161 12.97 12.3706 12.97C12.5341 12.9155 12.752 12.97 12.97 13.1335C13.188 13.297 13.406 13.515 13.624 13.733C13.842 13.951 14.0599 14.2234 14.3324 14.5504C14.6049 14.8229 14.8774 15.0954 15.0409 15.2044L15.2589 15.3133C15.4223 15.4223 15.5858 15.4768 15.8038 15.5313C16.0218 15.5858 16.2398 15.6403 16.4033 15.5858L19.0736 15.5313C19.346 15.5313 19.564 15.4768 19.673 15.4223C19.8365 15.3133 19.891 15.2589 19.9455 15.1499C20 15.0409 20 14.9319 19.9455 14.7684C19.9455 14.7684 19.9455 14.6594 19.891 14.6049Z">
    </symbol>
</svg>

<svg xmlns="http://www.w3.org/2000/svg" xmlns:xlink="http://www.w3.org/1999/xlink">
    <symbol id="face">
        <path class="facebook" d="M36.7,34.7c0,1.1-0.9,2-2,2h-9.4V22.5h4.8l0.7-5.5h-5.5v-3.5c0-1.6,0.4-2.7,2.7-2.7l2.9,0v-5
	c-0.5-0.1-2.2-0.2-4.3-0.2c-4.2,0-7.1,2.6-7.1,7.3V17h-4.8v5.5h4.8v14.2H2c-1.1,0-2-0.9-2-2V2c0-1.1,0.9-2,2-2h32.7c1.1,0,2,0.9,2,2
	V34.7z">
    </symbol>
</svg>

<svg xmlns="http://www.w3.org/2000/svg">
    <symbol id="inst">
        <path class="instagram"
            d="M17.6022 0H2.39782C1.08992 0 0 1.03542 0 2.34332V17.6567C0 18.9646 1.08992 20 2.39782 20H17.6022C18.9101 20 20 18.9646 20 17.6567V2.34332C20 1.03542 18.9101 0 17.6022 0ZM14.3869 3.10627C14.3869 2.77929 14.6594 2.50681 14.9864 2.50681H16.8937C17.2207 2.50681 17.4932 2.77929 17.4932 3.10627V4.95913C17.4932 5.2861 17.2207 5.55858 16.8937 5.55858H15.0409C14.7139 5.55858 14.4414 5.2861 14.4414 4.95913L14.3869 3.10627ZM10.0272 6.15804C12.1526 6.15804 13.8965 7.84741 13.8965 9.97275C13.8965 12.0981 12.1526 13.7875 10.0272 13.7875C7.90191 13.7875 6.15804 12.0981 6.15804 9.97275C6.15804 7.90191 7.90191 6.15804 10.0272 6.15804ZM18.0926 17.4932C18.0926 17.8202 17.8202 18.0926 17.4932 18.0926H2.50681C2.17984 18.0926 1.90736 17.8202 1.90736 17.4932V8.11989H4.35967C4.0327 8.61035 3.92371 9.48229 3.92371 10.0272C3.92371 13.3515 6.6485 16.0763 10.0272 16.0763C13.406 16.0763 16.1308 13.3515 16.1308 10.0272C16.1308 9.48229 16.0763 8.61035 15.6403 8.11989H18.1471L18.0926 17.4932Z">
    </symbol>
</svg>

<svg xmlns="http://www.w3.org/2000/svg">
    <symbol id="tw">
        <path class="twitter"
            d="M19.455 2.01613C18.6376 2.5066 17.7657 2.83357 16.8392 3.05155C16.0763 2.23412 15.0409 1.74365 13.842 1.74365C11.5531 1.74365 9.75477 3.65101 9.75477 5.93984C9.75477 6.26681 9.80926 6.59379 9.86376 6.92076C6.43052 6.70278 3.43324 5.01341 1.41689 2.4521C1.08992 3.05155 0.871935 3.8145 0.871935 4.57744C0.871935 6.04883 1.58038 7.30224 2.7248 8.06518C2.07084 8.06518 1.41689 7.84719 0.871935 7.52022V7.62921C0.871935 9.64556 2.28883 11.3894 4.14169 11.7709C3.81471 11.8799 3.43324 11.9344 3.05177 11.9344C2.77929 11.9344 2.50681 11.9344 2.28883 11.8799C2.83379 13.5693 4.30518 14.7682 6.10354 14.8227C4.68665 15.9671 2.94278 16.621 0.980926 16.621C0.653951 16.621 0.326975 16.621 0 16.5665C1.79837 17.7654 3.9782 18.4739 6.26703 18.4739C13.842 18.4739 17.9292 12.0434 17.9292 6.4848C17.9292 6.32131 17.9292 6.10332 17.9292 5.93984C18.7466 5.34038 19.455 4.63194 20 3.76C19.2916 4.08698 18.4741 4.30496 17.6567 4.41395C18.4741 3.8145 19.1281 2.99706 19.455 2.01613Z">
    </symbol>
</svg>